<?xml version="1.0" encoding="UTF-8"?>
<!-- Lucide Icons, copyright Lucide contributors; ISC License. -->
<svg xmlns="http://www.w3.org/2000/svg" width="120" height="32" viewBox="0 0 120 32">
  <symbol id="icon-lock" viewBox="0 0 24 24" fill="none" stroke="currentColor" stroke-width="1.6" stroke-linecap="round" stroke-linejoin="round">
    <circle cx="12" cy="16" r="1"/>
    <rect x="3" y="10" width="18" height="12" rx="2"/>
    <path d="M7 10V7a5 5 0 0 1 10 0v3"/>
  </symbol>
  <symbol id="icon-unlock" viewBox="0 0 24 24" fill="none" stroke="currentColor" stroke-width="1.6" stroke-linecap="round" stroke-linejoin="round">
    <circle cx="12" cy="16" r="1"/>
    <rect width="18" height="12" x="3" y="10" rx="2"/>
    <path d="M7 10V7a5 5 0 0 1 9.33-2.5"/>
  </symbol>
  <symbol id="icon-home" viewBox="0 0 24 24" fill="none" stroke="currentColor" stroke-width="1.6" stroke-linecap="round" stroke-linejoin="round">
    <path d="M15 21v-8a1 1 0 0 0-1-1h-4a1 1 0 0 0-1 1v8"/>
    <path d="M3 10a2 2 0 0 1 .709-1.528l7-6a2 2 0 0 1 2.582 0l7 6A2 2 0 0 1 21 10v9a2 2 0 0 1-2 2H5a2 2 0 0 1-2-2z"/>
  </symbol>
  <symbol id="icon-music" viewBox="0 0 24 24" fill="none" stroke="currentColor" stroke-width="1.6" stroke-linecap="round" stroke-linejoin="round">
    <circle cx="8" cy="18" r="4"/>
    <path d="M12 18V2l7 4"/>
  </symbol>
  <use href="#icon-lock" x="4" y="4" width="24" height="24"/>
  <use href="#icon-unlock" x="34" y="4" width="24" height="24"/>
  <use href="#icon-home" x="64" y="4" width="24" height="24"/>
  <use href="#icon-music" x="94" y="4" width="24" height="24"/>
</svg>
